<svg width="259" height="245" viewBox="0 0 259 245" fill="none" xmlns="http://www.w3.org/2000/svg">
<g id="backbuttton 1" clip-path="url(#clip0_0_1)">
<path id="other" d="M63.8867 171.735C63.9999 171.354 64.0185 170.954 63.9411 170.566C63.8637 170.178 63.6924 169.811 63.4405 169.496C63.1887 169.181 62.8631 168.925 62.4894 168.748C62.1156 168.572 61.7037 168.479 61.2859 168.478H59.3542C56.492 168.478 53.7471 167.403 51.7233 165.488C49.6995 163.574 48.5625 160.977 48.5625 158.27V35.7292C48.5625 33.0218 49.6995 30.4252 51.7233 28.5108C53.7471 26.5964 56.492 25.5208 59.3542 25.5208H210.438C213.3 25.5208 216.045 26.5964 218.068 28.5108C220.092 30.4252 221.229 33.0218 221.229 35.7292V144.775C221.227 145.352 221.433 145.913 221.814 146.364C222.195 146.815 222.727 147.13 223.323 147.255C235.013 149.806 245.76 155.29 254.435 163.129C254.817 163.475 255.297 163.707 255.817 163.797C256.336 163.887 256.872 163.831 257.358 163.635C257.845 163.439 258.259 163.113 258.551 162.696C258.843 162.28 258.999 161.791 259 161.292V25.5208C259 22.1694 258.302 18.8508 256.946 15.7544C255.591 12.6581 253.603 9.84471 251.098 7.47488C248.593 5.10505 245.619 3.2252 242.345 1.94266C239.072 0.660116 235.564 0 232.021 0L26.9792 0C19.8238 0 12.9616 2.68879 7.90202 7.47488C2.84244 12.261 0 18.7523 0 25.5208L0 168.438C0 175.206 2.84244 181.697 7.90202 186.483C12.9616 191.27 19.8238 193.958 26.9792 193.958H60.9945C61.4056 193.958 61.8112 193.869 62.1803 193.698C62.5494 193.526 62.8723 193.278 63.1243 192.97C63.3762 192.663 63.5506 192.305 63.6341 191.925C63.7176 191.544 63.708 191.15 63.6061 190.773C61.9299 184.514 62.0266 177.947 63.8867 171.735V171.735Z" fill="black"/>
<path id="hand" d="M248.208 245C250.355 245 252.414 244.193 253.931 242.758C255.449 241.322 256.302 239.374 256.302 237.344V206.719C256.285 193.863 250.879 181.539 241.269 172.449C231.66 163.359 218.631 158.245 205.042 158.229H183.458C182.743 158.229 182.057 157.96 181.551 157.482C181.045 157.003 180.76 156.354 180.76 155.677V99.5312C180.76 93.4396 178.202 87.5974 173.649 83.2899C169.095 78.9824 162.919 76.5625 156.479 76.5625C150.039 76.5625 143.863 78.9824 139.31 83.2899C134.756 87.5974 132.198 93.4396 132.198 99.5312V171.602C132.198 172.126 132.027 172.638 131.708 173.067C131.39 173.496 130.939 173.822 130.418 174.001C129.897 174.179 129.33 174.201 128.795 174.064C128.26 173.928 127.783 173.638 127.428 173.235L121.19 166.09C117.073 161.404 111.157 158.458 104.744 157.899C98.3301 157.34 91.9445 159.214 86.9916 163.109C82.0387 167.003 78.9242 172.6 78.3332 178.667C77.7422 184.733 79.7233 190.774 83.8404 195.459L124.924 242.203C125.686 243.065 126.639 243.758 127.714 244.235C128.79 244.711 129.963 244.958 131.151 244.959L248.208 245Z" fill="black"/>
</g>
<defs>
<clipPath id="clip0_0_1">
<rect width="259" height="245" fill="white"/>
</clipPath>
</defs>
</svg>
