<svg width="658" height="513" viewBox="0 0 658 513" fill="none" xmlns="http://www.w3.org/2000/svg">
<g id="undraw_New_notifications_re_xpcv 1" clip-path="url(#clip0)">
<g id="bodies">
<g id="LeftHand">
<path id="Vector" d="M259.692 136.023C259.389 136.643 259.136 137.285 258.934 137.945L199.773 155.776L188.819 145.512L171.169 160.019L188.795 180.073C190.219 181.693 192.13 182.808 194.241 183.249C196.353 183.691 198.55 183.436 200.504 182.522L264.183 152.744C266.397 154.21 269.006 154.968 271.661 154.916C274.316 154.865 276.893 154.005 279.048 152.453C281.204 150.901 282.835 148.73 283.726 146.228C284.617 143.726 284.726 141.012 284.037 138.447C283.348 135.882 281.894 133.588 279.869 131.869C277.844 130.15 275.344 129.089 272.702 128.826C270.059 128.563 267.398 129.11 265.074 130.396C262.75 131.682 260.873 133.644 259.692 136.023L259.692 136.023Z" fill="#FFB6B6"/>
</g>
<path id="Vector_2" d="M197.809 156.497L176.044 174.611C175.424 175.126 174.701 175.502 173.924 175.712C173.146 175.923 172.332 175.964 171.537 175.832C170.742 175.699 169.985 175.397 169.318 174.946C168.65 174.495 168.088 173.906 167.669 173.217L152.985 149.105C150.368 145.922 149.12 141.83 149.515 137.728C149.909 133.626 151.914 129.848 155.089 127.221C158.264 124.594 162.352 123.333 166.455 123.714C170.558 124.096 174.343 126.088 176.98 129.255L197.961 148.008C198.561 148.545 199.039 149.206 199.361 149.944C199.684 150.682 199.843 151.482 199.829 152.287C199.814 153.093 199.627 153.886 199.278 154.612C198.93 155.339 198.429 155.981 197.809 156.497V156.497Z" fill="#3F3D56"/>
<path id="Vector_3" d="M1.19067 512.53H335.485C335.8 512.53 336.103 512.405 336.327 512.181C336.55 511.958 336.675 511.655 336.675 511.339C336.675 511.024 336.55 510.721 336.327 510.497C336.103 510.274 335.8 510.149 335.485 510.149H1.19067C1.03402 510.148 0.878807 510.179 0.733948 510.238C0.589088 510.298 0.457428 510.386 0.346497 510.496C0.235565 510.607 0.147548 510.738 0.0874939 510.883C0.0274402 511.028 -0.003479 511.183 -0.003479 511.339C-0.003479 511.496 0.0274402 511.651 0.0874939 511.796C0.147548 511.94 0.235565 512.072 0.346497 512.183C0.457428 512.293 0.589088 512.381 0.733948 512.44C0.878807 512.5 1.03402 512.53 1.19067 512.53V512.53Z" fill="#FCDDEC"/>
<g id="LeftLeg">
<path id="Vector_4" d="M188 387L212.221 518L239 510L223.815 377.94L212.221 268L170 285L188 387Z" fill="#2F2E41"/>
</g>
<g id="RightLeg">
<path id="Vector_5" d="M135.194 264C135.194 264 126.243 296.334 135.194 312C144.146 327.666 144.563 366 144.563 366L154 439L161.194 512H193C199 512 193 400 193 400L187 337V274L135.194 264Z" fill="#2F2E41"/>
</g>
<path id="Vector_6" d="M179.295 106.723C193.508 106.723 205.031 95.2002 205.031 80.9865C205.031 66.7728 193.508 55.2502 179.295 55.2502C165.081 55.2502 153.558 66.7728 153.558 80.9865C153.558 95.2002 165.081 106.723 179.295 106.723Z" fill="#FFB6B6"/>
<path id="Vector_7" d="M178.208 121.454C178.208 121.454 148.208 110.097 148.208 113.454C148.208 116.811 118.633 145.195 125.346 182.121C132.06 219.047 139.893 236.95 136.536 257.092C133.179 277.233 135.417 281.709 135.417 281.709C135.417 281.709 213.34 288.423 214.458 280.59C215.577 272.757 211.208 260.811 211.208 257.454C211.208 254.097 180.289 130.093 178.208 121.454Z" fill="#3F3D56"/>
<path id="Vector_8" d="M167.646 96.4513C169.73 95.3496 172.15 95.1226 174.405 94.4378C182.473 91.9881 187.878 82.8673 186.153 74.6138C185.834 73.5552 185.691 72.4515 185.729 71.3466C186.031 68.9021 188.532 67.3249 190.93 66.7648C193.329 66.2047 195.881 66.2861 198.173 65.3854C201.713 63.9949 204.064 60.3574 204.573 56.5888C204.94 52.7735 204.09 48.9401 202.146 45.6368L201.28 48.1298C199.959 47.0113 198.978 45.5444 198.449 43.896C197.464 44.0615 196.539 44.4769 195.761 45.1026C194.983 45.7282 194.378 46.5432 194.006 47.4693C192.615 48.2893 192.415 44.9218 190.879 44.425C190.203 44.3407 189.52 44.5091 188.961 44.8979C185.866 46.3415 182.27 45.1072 178.95 44.307C173.2 42.9279 167.207 42.9208 161.454 44.2864C157.633 45.198 153.85 46.7854 151.115 49.6064C148.976 52.0348 147.333 54.8583 146.278 57.9177C143.345 65.2996 141.407 73.2871 142.375 81.1712C143.182 87.6229 145.881 93.6913 150.132 98.6107C152.347 101.162 159.573 110.064 163.534 108.547C168.513 106.64 161.781 99.5526 167.646 96.4513Z" fill="#2F2E41"/>
<g id="RightHand">
<path id="Vector_9" d="M251.457 181.114C250.959 181.591 250.5 182.106 250.083 182.656L188.403 178.966L181.666 165.551L160.093 173.073L169.712 197.979C170.489 199.991 171.898 201.697 173.727 202.84C175.556 203.984 177.706 204.503 179.855 204.32L249.9 198.357C251.471 200.498 253.658 202.109 256.168 202.977C258.678 203.846 261.393 203.929 263.951 203.216C266.51 202.504 268.791 201.029 270.491 198.989C272.191 196.948 273.229 194.439 273.468 191.794C273.707 189.148 273.135 186.493 271.828 184.181C270.521 181.869 268.541 180.01 266.152 178.85C263.762 177.691 261.076 177.287 258.451 177.691C255.826 178.095 253.387 179.289 251.457 181.114L251.457 181.114Z" fill="#FFB6B6"/>
</g>
<path id="Vector_10" d="M186.311 178.965L159.63 188.45C158.871 188.72 158.063 188.823 157.26 188.752C156.458 188.682 155.68 188.439 154.979 188.04C154.279 187.642 153.673 187.097 153.202 186.443C152.731 185.789 152.407 185.042 152.251 184.251L146.795 156.552C145.439 152.661 145.68 148.391 147.467 144.678C149.253 140.965 152.439 138.111 156.325 136.742C160.212 135.373 164.483 135.6 168.202 137.374C171.921 139.149 174.786 142.325 176.168 146.207L189.384 171.05C189.762 171.761 189.982 172.546 190.03 173.35C190.078 174.155 189.951 174.96 189.66 175.711C189.368 176.462 188.918 177.141 188.34 177.703C187.762 178.264 187.07 178.695 186.311 178.965H186.311Z" fill="#3F3D56"/>
</g>
</g>
<defs>
<clipPath id="clip0">
<rect width="657.991" height="512.53" fill="white"/>
</clipPath>
</defs>
</svg>
